<svg version="1.1" id="Layer_1" xmlns="http://www.w3.org/2000/svg" xmlns:xlink="http://www.w3.org/1999/xlink" x="0px" y="0px"
	 width="100%" viewBox="0 0 1381 467" enable-background="new 0 0 1381 467" xml:space="preserve">
<path fill="#020006" opacity="1.000000" stroke="none" 
	d="
M1302.000000,468.000000 
	C868.000000,468.000000 434.500061,468.000000 1.000058,468.000000 
	C1.000039,312.333374 1.000039,156.666733 1.000019,1.000079 
	C461.333252,1.000053 921.666504,1.000053 1381.999756,1.000026 
	C1381.999878,156.666595 1381.999878,312.333191 1382.000000,467.999878 
	C1355.500000,468.000000 1329.000000,468.000000 1302.000000,468.000000 
M881.493164,218.781067 
	C879.587891,207.322113 877.682617,195.863144 875.703125,183.957596 
	C870.198120,183.957596 864.862732,184.344086 859.612610,183.841064 
	C855.022949,183.401306 853.312622,185.352570 851.947144,189.355911 
	C847.402405,202.680084 842.493042,215.879898 837.246826,230.451126 
	C831.329529,214.149658 825.866272,199.098892 820.493530,184.297699 
	C812.930542,184.297699 805.849426,184.297699 798.660400,184.297699 
	C793.858398,213.107132 789.108643,241.602844 784.294006,270.488220 
	C791.642273,270.488220 798.562134,270.488220 805.890015,270.488220 
	C808.282288,255.062119 810.686646,239.558243 813.091003,224.054382 
	C814.704773,225.444565 815.446289,227.016312 816.075317,228.631851 
	C821.084290,241.496780 826.220825,254.315430 830.969849,267.275940 
	C832.286377,270.869019 834.582275,270.789520 837.498962,270.875671 
	C840.496704,270.964203 842.277954,270.323120 843.448547,267.115173 
	C847.781616,255.240601 852.469666,243.495087 857.069641,231.718765 
	C858.089111,229.108978 859.293396,226.571365 860.412537,224.000504 
	C860.733398,224.084824 861.054260,224.169128 861.375122,224.253433 
	C863.761719,239.638397 866.148376,255.023361 868.561890,270.581665 
	C875.872681,270.581665 882.798401,270.581665 890.148560,270.581665 
	C887.290771,253.392609 884.484497,236.513260 881.493164,218.781067 
M589.376648,231.513397 
	C589.376648,227.309647 589.376648,223.105896 589.376648,218.902130 
	C591.512085,219.912811 592.524536,221.147675 593.491577,222.417160 
	C604.994995,237.518112 616.471985,252.639313 628.026855,267.700684 
	C628.966003,268.924835 630.389893,270.566162 631.650513,270.622314 
	C638.236816,270.915619 644.843079,270.759247 651.583130,270.759247 
	C651.583130,241.550201 651.583130,212.966934 651.583130,184.232574 
	C644.439575,184.232574 637.536438,184.232574 630.083862,184.232574 
	C630.083862,201.525497 630.083862,218.553986 630.083862,236.915939 
	C628.112488,234.499161 626.973450,233.180832 625.918884,231.797989 
	C614.507812,216.834579 603.140991,201.837250 591.654419,186.932114 
	C590.660583,185.642456 588.937256,184.171310 587.490234,184.102661 
	C581.038513,183.796631 574.564026,183.969772 568.098267,183.969772 
	C568.098267,213.093155 568.098267,241.815430 568.098267,270.597076 
	C575.259399,270.597076 582.042786,270.597076 589.375183,270.597076 
	C589.375183,257.767853 589.375183,245.138824 589.376648,231.513397 
M1286.783325,195.688095 
	C1284.861694,193.176208 1283.008423,190.607880 1280.993408,188.173233 
	C1279.759399,186.682327 1278.344727,184.294464 1276.895630,184.206116 
	C1270.012695,183.786499 1263.089844,184.018524 1256.386108,184.018524 
	C1256.386108,213.323425 1256.386108,241.863098 1256.386108,270.452820 
	C1263.680786,270.452820 1270.561768,270.452820 1278.006714,270.452820 
	C1278.006714,253.092911 1278.006714,236.083817 1278.006714,217.732269 
	C1279.909302,220.040237 1280.959229,221.232773 1281.920776,222.492783 
	C1293.429443,237.574097 1304.905640,252.680206 1316.460205,267.726227 
	C1317.396484,268.945374 1318.809814,270.586487 1320.062988,270.642029 
	C1326.647827,270.933960 1333.252441,270.778625 1339.936401,270.778625 
	C1339.936401,241.585129 1339.936401,213.008331 1339.936401,184.190826 
	C1332.834351,184.190826 1325.926392,184.190826 1318.337891,184.190826 
	C1318.337891,201.479874 1318.337891,218.581284 1318.337891,237.079590 
	C1307.335571,222.659912 1297.266724,209.463608 1286.783325,195.688095 
M1227.070190,204.479721 
	C1213.466797,183.702179 1190.426270,176.451050 1167.854614,185.843796 
	C1147.906738,194.144714 1136.606812,215.748581 1141.209961,236.784714 
	C1145.890625,258.175018 1166.287720,274.108887 1187.710693,273.136597 
	C1223.023682,271.533936 1244.446045,236.049301 1227.070190,204.479721 
M461.783051,255.695358 
	C473.219452,268.836853 487.502747,274.806915 504.900269,272.446777 
	C531.129333,268.888519 548.250305,245.667160 544.164062,219.417740 
	C540.409912,195.302231 515.285095,177.904816 490.380249,182.462006 
	C455.883606,188.774353 440.071808,227.120270 461.783051,255.695358 
M929.612122,189.070129 
	C915.293091,198.986877 907.128296,212.420853 908.596497,230.058838 
	C910.973877,258.619415 935.230469,276.882111 963.522705,272.202942 
	C995.706604,266.880188 1011.942871,230.122253 994.147522,202.870346 
	C980.362915,181.760483 953.468323,175.809204 929.612122,189.070129 
M272.022949,201.495132 
	C265.170898,192.217346 256.050507,186.196014 244.663361,184.883759 
	C235.294357,183.804077 225.754868,184.186340 216.289886,183.966583 
	C213.041855,183.891159 209.790573,183.954590 206.611664,183.954590 
	C206.611664,213.256744 206.611664,241.809921 206.611664,270.808990 
	C216.551559,270.808990 226.173264,270.948212 235.789520,270.778503 
	C253.066864,270.473572 267.036682,263.639587 275.104034,248.014816 
	C283.113068,232.503082 281.909485,216.889572 272.022949,201.495132 
M103.677269,205.780350 
	C100.751114,192.697952 94.378036,185.410202 82.084854,184.434540 
	C69.082886,183.402618 55.935497,184.202957 42.829788,184.202957 
	C42.829788,213.205887 42.829788,241.900604 42.829788,270.553955 
	C49.989796,270.553955 56.753231,270.553955 64.213623,270.553955 
	C64.213623,260.126770 64.213623,249.967911 64.213623,239.809021 
	C64.656944,239.642792 65.100266,239.476547 65.543579,239.310318 
	C66.488686,240.459900 67.576622,241.520660 68.355743,242.773483 
	C73.446930,250.960022 78.431595,259.213043 83.557716,267.377380 
	C84.380905,268.688446 85.704834,270.603149 86.853920,270.643921 
	C94.885895,270.929199 102.932762,270.794891 112.011139,270.794891 
	C103.544853,259.216614 95.765823,248.578232 87.835434,237.732834 
	C96.161713,234.244675 101.527863,228.782486 103.034592,220.457733 
	C103.851524,215.944229 103.557823,211.229691 103.677269,205.780350 
M345.602814,269.219879 
	C357.180542,263.006287 362.050140,253.246170 360.817474,240.307648 
	C359.665588,228.216949 351.985962,221.933563 341.248169,218.306564 
	C337.165588,216.927551 332.973480,215.643295 329.204498,213.620468 
	C323.857452,210.750671 323.763550,204.068451 329.023376,201.774033 
	C331.580139,200.658737 334.957214,200.316635 337.669037,200.928070 
	C341.580353,201.809952 345.224182,203.878128 349.316437,205.579041 
	C352.015869,200.134384 354.781982,194.555328 357.659882,188.750732 
	C345.994904,182.550323 334.404663,179.946976 322.042053,183.080093 
	C310.312775,186.052689 303.167633,195.343964 302.476776,207.831833 
	C301.760071,220.786774 306.633667,228.151794 319.172302,232.977814 
	C323.352600,234.586792 327.663788,235.891907 331.740662,237.724152 
	C336.704224,239.954865 338.973846,244.159744 337.706940,247.854950 
	C336.320953,251.897507 330.981934,254.977448 326.262238,253.564560 
	C320.054047,251.706116 314.078796,249.069672 307.577850,246.606552 
	C304.965179,251.615036 301.985565,257.326965 298.891632,263.258057 
	C313.408081,272.908417 328.507538,276.034180 345.602814,269.219879 
M684.696045,270.805573 
	C698.593872,270.805573 712.491699,270.805573 726.357788,270.805573 
	C726.357788,263.959198 726.357788,257.882965 726.357788,251.197845 
	C717.489685,251.197845 708.937134,251.197845 700.480713,251.197845 
	C700.480713,235.009064 700.480713,219.440857 700.480713,203.292389 
	C709.356323,203.292389 717.920349,203.292389 726.354675,203.292389 
	C726.354675,196.602661 726.354675,190.504425 726.354675,184.219528 
	C710.300598,184.219528 694.574951,184.219528 678.868774,184.219528 
	C678.868774,213.193832 678.868774,241.885559 678.868774,270.805756 
	C680.776855,270.805756 682.266541,270.805756 684.696045,270.805573 
M180.658066,186.907379 
	C179.849045,185.947235 179.049225,184.158813 178.229660,184.149719 
	C163.123367,183.981979 148.014709,184.026932 132.840820,184.026932 
	C132.840820,213.152573 132.840820,241.865265 132.840820,270.429718 
	C148.935074,270.429718 164.657333,270.429718 180.379730,270.429718 
	C180.379730,263.953156 180.379730,257.877716 180.379730,251.210617 
	C171.536041,251.210617 162.990479,251.210617 154.439789,251.210617 
	C154.439789,235.029510 154.439789,219.448181 154.439789,203.332901 
	C163.307632,203.332901 171.899078,203.332901 180.661423,203.332901 
	C180.661423,197.811615 180.661423,192.825714 180.658066,186.907379 
M1056.961548,210.546585 
	C1056.961548,208.292831 1056.961548,206.039062 1056.961548,203.258026 
	C1063.446533,203.258026 1069.169312,203.258026 1074.795898,203.258026 
	C1074.795898,196.627914 1074.795898,190.541168 1074.795898,184.273758 
	C1055.603027,184.273758 1036.714478,184.273758 1017.583923,184.273758 
	C1017.583923,190.681519 1017.583923,196.768356 1017.583923,203.437683 
	C1023.365356,203.437683 1029.101929,203.437683 1035.495850,203.437683 
	C1035.495850,226.205521 1035.495850,248.403961 1035.495850,270.579285 
	C1042.943115,270.579285 1049.713135,270.579285 1056.961548,270.579285 
	C1056.961548,250.738159 1056.961548,231.139252 1056.961548,210.546585 
M379.004639,184.283096 
	C378.600586,190.479538 378.196533,196.675964 377.753113,203.476440 
	C384.189362,203.476440 389.921051,203.476440 396.108856,203.476440 
	C396.108856,226.099945 396.108856,248.152863 396.108856,270.505981 
	C403.476624,270.505981 410.363434,270.505981 417.889832,270.505981 
	C417.889832,248.111420 417.889832,225.927460 417.889832,203.215210 
	C424.257935,203.215210 429.992401,203.215210 435.555481,203.215210 
	C435.555481,196.584579 435.555481,190.500153 435.555481,184.047150 
	C416.779419,184.047150 398.345276,184.047150 379.004639,184.283096 
M1095.968018,184.696457 
	C1095.968018,213.260925 1095.968018,241.825378 1095.968018,270.486023 
	C1103.369873,270.486023 1110.135376,270.486023 1117.052124,270.486023 
	C1117.052124,241.571640 1117.052124,212.886093 1117.052124,184.074265 
	C1110.022217,184.074265 1103.367920,184.074265 1095.968018,184.696457 
M704.995056,228.281921 
	C706.275330,235.783081 710.998779,239.707977 717.879089,238.987610 
	C723.677246,238.380569 727.945251,233.009918 727.691345,226.640472 
	C727.461670,220.880066 722.458191,215.751068 716.928162,215.607132 
	C710.226746,215.432693 705.587219,220.032013 704.995056,228.281921 
M159.750717,222.616684 
	C157.765289,231.272781 161.218506,237.913818 168.217758,238.900024 
	C174.378860,239.768143 179.315887,236.740051 180.990341,231.066040 
	C182.808075,224.906494 180.439774,219.200760 175.079788,216.826279 
	C169.317291,214.273529 163.979050,216.089325 159.750717,222.616684 
z"/>
<path fill="#D6D5D6" opacity="1.000000" stroke="none" 
	d="
M881.585693,219.207489 
	C884.484497,236.513260 887.290771,253.392609 890.148560,270.581665 
	C882.798401,270.581665 875.872681,270.581665 868.561890,270.581665 
	C866.148376,255.023361 863.761719,239.638397 861.375122,224.253433 
	C861.054260,224.169128 860.733398,224.084824 860.412537,224.000504 
	C859.293396,226.571365 858.089111,229.108978 857.069641,231.718765 
	C852.469666,243.495087 847.781616,255.240601 843.448547,267.115173 
	C842.277954,270.323120 840.496704,270.964203 837.498962,270.875671 
	C834.582275,270.789520 832.286377,270.869019 830.969849,267.275940 
	C826.220825,254.315430 821.084290,241.496780 816.075317,228.631851 
	C815.446289,227.016312 814.704773,225.444565 813.091003,224.054382 
	C810.686646,239.558243 808.282288,255.062119 805.890015,270.488220 
	C798.562134,270.488220 791.642273,270.488220 784.294006,270.488220 
	C789.108643,241.602844 793.858398,213.107132 798.660400,184.297699 
	C805.849426,184.297699 812.930542,184.297699 820.493530,184.297699 
	C825.866272,199.098892 831.329529,214.149658 837.246826,230.451126 
	C842.493042,215.879898 847.402405,202.680084 851.947144,189.355911 
	C853.312622,185.352570 855.022949,183.401306 859.612610,183.841064 
	C864.862732,184.344086 870.198120,183.957596 875.703125,183.957596 
	C877.682617,195.863144 879.587891,207.322113 881.585693,219.207489 
z"/>
<path fill="#D6D6D7" opacity="1.000000" stroke="none" 
	d="
M589.375916,232.011597 
	C589.375183,245.138824 589.375183,257.767853 589.375183,270.597076 
	C582.042786,270.597076 575.259399,270.597076 568.098267,270.597076 
	C568.098267,241.815430 568.098267,213.093155 568.098267,183.969772 
	C574.564026,183.969772 581.038513,183.796631 587.490234,184.102661 
	C588.937256,184.171310 590.660583,185.642456 591.654419,186.932114 
	C603.140991,201.837250 614.507812,216.834579 625.918884,231.797989 
	C626.973450,233.180832 628.112488,234.499161 630.083862,236.915939 
	C630.083862,218.553986 630.083862,201.525497 630.083862,184.232574 
	C637.536438,184.232574 644.439575,184.232574 651.583130,184.232574 
	C651.583130,212.966934 651.583130,241.550201 651.583130,270.759247 
	C644.843079,270.759247 638.236816,270.915619 631.650513,270.622314 
	C630.389893,270.566162 628.966003,268.924835 628.026855,267.700684 
	C616.471985,252.639313 604.994995,237.518112 593.491577,222.417160 
	C592.524536,221.147675 591.512085,219.912811 589.376648,218.902130 
	C589.376648,223.105896 589.376648,227.309647 589.375916,232.011597 
z"/>
<path fill="#D6D6D6" opacity="1.000000" stroke="none" 
	d="
M1286.990479,195.977692 
	C1297.266724,209.463608 1307.335571,222.659912 1318.337891,237.079590 
	C1318.337891,218.581284 1318.337891,201.479874 1318.337891,184.190826 
	C1325.926392,184.190826 1332.834351,184.190826 1339.936401,184.190826 
	C1339.936401,213.008331 1339.936401,241.585129 1339.936401,270.778625 
	C1333.252441,270.778625 1326.647827,270.933960 1320.062988,270.642029 
	C1318.809814,270.586487 1317.396484,268.945374 1316.460205,267.726227 
	C1304.905640,252.680206 1293.429443,237.574097 1281.920776,222.492783 
	C1280.959229,221.232773 1279.909302,220.040237 1278.006714,217.732269 
	C1278.006714,236.083817 1278.006714,253.092911 1278.006714,270.452820 
	C1270.561768,270.452820 1263.680786,270.452820 1256.386108,270.452820 
	C1256.386108,241.863098 1256.386108,213.323425 1256.386108,184.018524 
	C1263.089844,184.018524 1270.012695,183.786499 1276.895630,184.206116 
	C1278.344727,184.294464 1279.759399,186.682327 1280.993408,188.173233 
	C1283.008423,190.607880 1284.861694,193.176208 1286.990479,195.977692 
z"/>
<path fill="#D6D6D7" opacity="1.000000" stroke="none" 
	d="
M1227.262085,204.794891 
	C1244.446045,236.049301 1223.023682,271.533936 1187.710693,273.136597 
	C1166.287720,274.108887 1145.890625,258.175018 1141.209961,236.784714 
	C1136.606812,215.748581 1147.906738,194.144714 1167.854614,185.843796 
	C1190.426270,176.451050 1213.466797,183.702179 1227.262085,204.794891 
M1204.788818,243.256073 
	C1211.807983,235.080536 1213.037720,226.129471 1208.206177,216.478409 
	C1203.825562,207.728165 1194.444092,202.747650 1183.646362,204.078812 
	C1173.752319,205.298523 1166.873779,210.910156 1163.595459,220.442520 
	C1160.298096,230.030563 1164.566040,241.560547 1173.224365,247.060791 
	C1183.428833,253.543259 1195.163696,252.297638 1204.788818,243.256073 
z"/>
<path fill="#D6D6D7" opacity="1.000000" stroke="none" 
	d="
M461.560242,255.416321 
	C440.071808,227.120270 455.883606,188.774353 490.380249,182.462006 
	C515.285095,177.904816 540.409912,195.302231 544.164062,219.417740 
	C548.250305,245.667160 531.129333,268.888519 504.900269,272.446777 
	C487.502747,274.806915 473.219452,268.836853 461.560242,255.416321 
M489.299042,205.535858 
	C479.142548,210.100235 473.575745,218.452576 474.059387,228.401276 
	C474.521942,237.916702 481.076599,246.624405 490.178894,249.815628 
	C499.516724,253.089432 510.377747,250.174149 516.945557,242.630981 
	C523.756470,234.808624 524.544739,223.692719 518.913757,214.876022 
	C512.884949,205.436279 501.585144,201.661835 489.299042,205.535858 
z"/>
<path fill="#D6D6D7" opacity="1.000000" stroke="none" 
	d="
M929.935547,188.901550 
	C953.468323,175.809204 980.362915,181.760483 994.147522,202.870346 
	C1011.942871,230.122253 995.706604,266.880188 963.522705,272.202942 
	C935.230469,276.882111 910.973877,258.619415 908.596497,230.058838 
	C907.128296,212.420853 915.293091,198.986877 929.935547,188.901550 
M974.310852,241.700836 
	C974.864197,240.873535 975.464355,240.073441 975.963684,239.214722 
	C981.485901,229.717712 979.869873,218.196838 971.945190,210.450302 
	C964.343079,203.019135 951.164185,201.688980 941.978577,207.425827 
	C932.554993,213.311371 928.456665,224.208939 931.962341,234.688324 
	C938.061646,252.920914 961.717957,256.777313 974.310852,241.700836 
z"/>
<path fill="#D5D5D5" opacity="1.000000" stroke="none" 
	d="
M272.244324,201.778610 
	C281.909485,216.889572 283.113068,232.503082 275.104034,248.014816 
	C267.036682,263.639587 253.066864,270.473572 235.789520,270.778503 
	C226.173264,270.948212 216.551559,270.808990 206.611664,270.808990 
	C206.611664,241.809921 206.611664,213.256744 206.611664,183.954590 
	C209.790573,183.954590 213.041855,183.891159 216.289886,183.966583 
	C225.754868,184.186340 235.294357,183.804077 244.663361,184.883759 
	C256.050507,186.196014 265.170898,192.217346 272.244324,201.778610 
M253.258636,241.580444 
	C258.812439,231.534851 258.920166,221.423065 252.278168,212.036072 
	C246.491974,203.858597 237.617477,202.791794 228.192108,203.327942 
	C228.192108,219.589996 228.192108,235.415115 228.192108,251.565826 
	C238.008057,251.880341 246.712219,250.493179 253.258636,241.580444 
z"/>
<path fill="#D5D4D5" opacity="1.000000" stroke="none" 
	d="
M103.721191,206.193085 
	C103.557823,211.229691 103.851524,215.944229 103.034592,220.457733 
	C101.527863,228.782486 96.161713,234.244675 87.835434,237.732834 
	C95.765823,248.578232 103.544853,259.216614 112.011139,270.794891 
	C102.932762,270.794891 94.885895,270.929199 86.853920,270.643921 
	C85.704834,270.603149 84.380905,268.688446 83.557716,267.377380 
	C78.431595,259.213043 73.446930,250.960022 68.355743,242.773483 
	C67.576622,241.520660 66.488686,240.459900 65.543579,239.310318 
	C65.100266,239.476547 64.656944,239.642792 64.213623,239.809021 
	C64.213623,249.967911 64.213623,260.126770 64.213623,270.553955 
	C56.753231,270.553955 49.989796,270.553955 42.829788,270.553955 
	C42.829788,241.900604 42.829788,213.205887 42.829788,184.202957 
	C55.935497,184.202957 69.082886,183.402618 82.084854,184.434540 
	C94.378036,185.410202 100.751114,192.697952 103.721191,206.193085 
M71.100182,201.425781 
	C68.848366,201.425781 66.596550,201.425781 64.311035,201.425781 
	C64.311035,208.635040 64.311035,215.046707 64.311035,221.389771 
	C74.966888,223.240982 81.064133,220.684387 82.040428,214.164169 
	C83.205612,206.382538 80.277039,202.694595 71.100182,201.425781 
z"/>
<path fill="#D6D5D6" opacity="1.000000" stroke="none" 
	d="
M345.278259,269.413513 
	C328.507538,276.034180 313.408081,272.908417 298.891632,263.258057 
	C301.985565,257.326965 304.965179,251.615036 307.577850,246.606552 
	C314.078796,249.069672 320.054047,251.706116 326.262238,253.564560 
	C330.981934,254.977448 336.320953,251.897507 337.706940,247.854950 
	C338.973846,244.159744 336.704224,239.954865 331.740662,237.724152 
	C327.663788,235.891907 323.352600,234.586792 319.172302,232.977814 
	C306.633667,228.151794 301.760071,220.786774 302.476776,207.831833 
	C303.167633,195.343964 310.312775,186.052689 322.042053,183.080093 
	C334.404663,179.946976 345.994904,182.550323 357.659882,188.750732 
	C354.781982,194.555328 352.015869,200.134384 349.316437,205.579041 
	C345.224182,203.878128 341.580353,201.809952 337.669037,200.928070 
	C334.957214,200.316635 331.580139,200.658737 329.023376,201.774033 
	C323.763550,204.068451 323.857452,210.750671 329.204498,213.620468 
	C332.973480,215.643295 337.165588,216.927551 341.248169,218.306564 
	C351.985962,221.933563 359.665588,228.216949 360.817474,240.307648 
	C362.050140,253.246170 357.180542,263.006287 345.278259,269.413513 
z"/>
<path fill="#D3D2D4" opacity="1.000000" stroke="none" 
	d="
M684.226074,270.805664 
	C682.266541,270.805756 680.776855,270.805756 678.868774,270.805756 
	C678.868774,241.885559 678.868774,213.193832 678.868774,184.219528 
	C694.574951,184.219528 710.300598,184.219528 726.354675,184.219528 
	C726.354675,190.504425 726.354675,196.602661 726.354675,203.292389 
	C717.920349,203.292389 709.356323,203.292389 700.480713,203.292389 
	C700.480713,219.440857 700.480713,235.009064 700.480713,251.197845 
	C708.937134,251.197845 717.489685,251.197845 726.357788,251.197845 
	C726.357788,257.882965 726.357788,263.959198 726.357788,270.805573 
	C712.491699,270.805573 698.593872,270.805573 684.226074,270.805664 
z"/>
<path fill="#D5D5D6" opacity="1.000000" stroke="none" 
	d="
M180.659744,187.373596 
	C180.661423,192.825714 180.661423,197.811615 180.661423,203.332901 
	C171.899078,203.332901 163.307632,203.332901 154.439789,203.332901 
	C154.439789,219.448181 154.439789,235.029510 154.439789,251.210617 
	C162.990479,251.210617 171.536041,251.210617 180.379730,251.210617 
	C180.379730,257.877716 180.379730,263.953156 180.379730,270.429718 
	C164.657333,270.429718 148.935074,270.429718 132.840820,270.429718 
	C132.840820,241.865265 132.840820,213.152573 132.840820,184.026932 
	C148.014709,184.026932 163.123367,183.981979 178.229660,184.149719 
	C179.049225,184.158813 179.849045,185.947235 180.659744,187.373596 
z"/>
<path fill="#D4D4D5" opacity="1.000000" stroke="none" 
	d="
M1056.961548,211.043457 
	C1056.961548,231.139252 1056.961548,250.738159 1056.961548,270.579285 
	C1049.713135,270.579285 1042.943115,270.579285 1035.495850,270.579285 
	C1035.495850,248.403961 1035.495850,226.205521 1035.495850,203.437683 
	C1029.101929,203.437683 1023.365356,203.437683 1017.583923,203.437683 
	C1017.583923,196.768356 1017.583923,190.681519 1017.583923,184.273758 
	C1036.714478,184.273758 1055.603027,184.273758 1074.795898,184.273758 
	C1074.795898,190.541168 1074.795898,196.627914 1074.795898,203.258026 
	C1069.169312,203.258026 1063.446533,203.258026 1056.961548,203.258026 
	C1056.961548,206.039062 1056.961548,208.292831 1056.961548,211.043457 
z"/>
<path fill="#D5D4D5" opacity="1.000000" stroke="none" 
	d="
M379.457886,184.165131 
	C398.345276,184.047150 416.779419,184.047150 435.555481,184.047150 
	C435.555481,190.500153 435.555481,196.584579 435.555481,203.215210 
	C429.992401,203.215210 424.257935,203.215210 417.889832,203.215210 
	C417.889832,225.927460 417.889832,248.111420 417.889832,270.505981 
	C410.363434,270.505981 403.476624,270.505981 396.108856,270.505981 
	C396.108856,248.152863 396.108856,226.099945 396.108856,203.476440 
	C389.921051,203.476440 384.189362,203.476440 377.753113,203.476440 
	C378.196533,196.675964 378.600586,190.479538 379.457886,184.165131 
z"/>
<path fill="#D8D8D8" opacity="1.000000" stroke="none" 
	d="
M1096.340820,184.385361 
	C1103.367920,184.074265 1110.022217,184.074265 1117.052124,184.074265 
	C1117.052124,212.886093 1117.052124,241.571640 1117.052124,270.486023 
	C1110.135376,270.486023 1103.369873,270.486023 1095.968018,270.486023 
	C1095.968018,241.825378 1095.968018,213.260925 1096.340820,184.385361 
z"/>
<path fill="#C3322A" opacity="1.000000" stroke="none" 
	d="
M704.992371,227.862015 
	C705.587219,220.032013 710.226746,215.432693 716.928162,215.607132 
	C722.458191,215.751068 727.461670,220.880066 727.691345,226.640472 
	C727.945251,233.009918 723.677246,238.380569 717.879089,238.987610 
	C710.998779,239.707977 706.275330,235.783081 704.992371,227.862015 
z"/>
<path fill="#C3322A" opacity="1.000000" stroke="none" 
	d="
M159.931213,222.267151 
	C163.979050,216.089325 169.317291,214.273529 175.079788,216.826279 
	C180.439774,219.200760 182.808075,224.906494 180.990341,231.066040 
	C179.315887,236.740051 174.378860,239.768143 168.217758,238.900024 
	C161.218506,237.913818 157.765289,231.272781 159.931213,222.267151 
z"/>
<path fill="#050308" opacity="1.000000" stroke="none" 
	d="
M1204.531616,243.510529 
	C1195.163696,252.297638 1183.428833,253.543259 1173.224365,247.060791 
	C1164.566040,241.560547 1160.298096,230.030563 1163.595459,220.442520 
	C1166.873779,210.910156 1173.752319,205.298523 1183.646362,204.078812 
	C1194.444092,202.747650 1203.825562,207.728165 1208.206177,216.478409 
	C1213.037720,226.129471 1211.807983,235.080536 1204.531616,243.510529 
z"/>
<path fill="#050309" opacity="1.000000" stroke="none" 
	d="
M489.670837,205.384064 
	C501.585144,201.661835 512.884949,205.436279 518.913757,214.876022 
	C524.544739,223.692719 523.756470,234.808624 516.945557,242.630981 
	C510.377747,250.174149 499.516724,253.089432 490.178894,249.815628 
	C481.076599,246.624405 474.521942,237.916702 474.059387,228.401276 
	C473.575745,218.452576 479.142548,210.100235 489.670837,205.384064 
z"/>
<path fill="#050309" opacity="1.000000" stroke="none" 
	d="
M974.106018,242.001770 
	C961.717957,256.777313 938.061646,252.920914 931.962341,234.688324 
	C928.456665,224.208939 932.554993,213.311371 941.978577,207.425827 
	C951.164185,201.688980 964.343079,203.019135 971.945190,210.450302 
	C979.869873,218.196838 981.485901,229.717712 975.963684,239.214722 
	C975.464355,240.073441 974.864197,240.873535 974.106018,242.001770 
z"/>
<path fill="#050309" opacity="1.000000" stroke="none" 
	d="
M253.051300,241.887451 
	C246.712219,250.493179 238.008057,251.880341 228.192108,251.565826 
	C228.192108,235.415115 228.192108,219.589996 228.192108,203.327942 
	C237.617477,202.791794 246.491974,203.858597 252.278168,212.036072 
	C258.920166,221.423065 258.812439,231.534851 253.051300,241.887451 
z"/>
<path fill="#09080E" opacity="1.000000" stroke="none" 
	d="
M71.524811,201.441162 
	C80.277039,202.694595 83.205612,206.382538 82.040428,214.164169 
	C81.064133,220.684387 74.966888,223.240982 64.311035,221.389771 
	C64.311035,215.046707 64.311035,208.635040 64.311035,201.425781 
	C66.596550,201.425781 68.848366,201.425781 71.524811,201.441162 
z"/>
</svg>